<svg width="384.95" height="91.08" viewBox="0 0 384.95 91.08" xmlns="http://www.w3.org/2000/svg">
 <defs>
  <clipPath transform="translate(-228.47 -252.36)" id="a">
   <rect id="svg_1" fill="none" height="595.28" width="841.89" class="a"/>
  </clipPath>

  <!-- Subtiele wow/shiny effect defs -->
  <linearGradient id="shineGradient" x1="0" y1="0" x2="1" y2="0">
   <stop offset="0" stop-color="#ffffff" stop-opacity="0"/>
   <stop offset="0.45" stop-color="#ffffff" stop-opacity="0"/>
   <stop offset="0.55" stop-color="#ffffff" stop-opacity="0.85"/>
   <stop offset="0.65" stop-color="#ffffff" stop-opacity="0"/>
   <stop offset="1" stop-color="#ffffff" stop-opacity="0"/>
  </linearGradient>

  <filter id="softShadow" x="-10%" y="-20%" width="120%" height="140%">
   <feDropShadow dx="0" dy="1" stdDeviation="1.2" flood-color="#000000" flood-opacity="0.22"/>
  </filter>

  <!-- Mask zodat shine alleen over het logo loopt -->
  <mask id="logoMask" maskUnits="userSpaceOnUse" x="-20" y="-20" width="430" height="140">
   <rect x="-20" y="-20" width="430" height="140" fill="black"/>
   <use href="#logoArtwork" fill="white"/>
  </mask>
 </defs>

 <title>logo-technolab</title>

 <!-- Alles in 1 groep zodat we 'm kunnen masken + shadowen -->
 <g id="logoArtwork" filter="url(#softShadow)">
  <!-- Shift alles 3px omlaag, en canvas is 3px hoger zodat nergens wordt afgesneden -->
  <g transform="translate(0 3)">
   <g>
    <title>Layer 1</title>
    <g id="svg_2" clip-path="url(#a)" class="b">
     <path id="svg_3" fill="#44205f" d="m135.86,85.39c0,-0.59 -0.69,-0.68 -1.53,-0.73c-1.83,-0.13 -3,-0.76 -3.05,-2.58c-0.07,-3.62 6.45,-3.62 6.4,0l-2,0c0,-1.11 -2.26,-1 -2.33,0c-0.05,0.63 0.57,0.77 1.33,0.85c1.67,0.18 3.3,0.39 3.3,2.49c0,3.53 -6.84,3.63 -6.79,-0.07l2.07,0c0,1.07 2.63,1 2.63,0.06" class="c"/>
     <path id="svg_4" fill="#44205f" d="m144.33,86.84l-3.31,0l-0.49,1.06l-2.1,0l0,-0.26l3.78,-8.2l0.92,0l3.79,8.2l0,0.31l-2.1,0l-0.49,-1.11zm-1.66,-4.05l-0.94,2.21l1.9,0l-0.96,-2.21z" class="c"/>
     <polygon id="svg_5" fill="#44205f" points="155.45 79.48 156.22 79.48 156.22 87.9 154.03 87.9 154.03 84.16 152.24 86.03 152 86.03 150.22 84.16 150.22 87.9 148.03 87.9 148.03 79.48 148.82 79.48 152.11 83.13 155.45 79.48" class="c"/>
     <polygon id="svg_6" fill="#44205f" points="163.56 81.42 160.45 81.42 160.45 82.61 163.3 82.61 163.3 84.52 160.45 84.52 160.45 85.99 163.66 85.99 163.66 87.9 158.31 87.9 158.31 79.5 163.56 79.5 163.56 81.42" class="c"/>
     <polygon id="svg_7" fill="#44205f" points="167.75 83.77 167.75 87.9 165.53 87.9 165.53 79.47 166.31 79.47 170.55 83.62 170.55 79.5 172.75 79.5 172.75 87.91 171.98 87.91 167.75 83.77" class="c"/>
     <polygon id="svg_8" fill="#94c01f" points="180.34 85.97 183.38 85.97 183.38 87.9 178.18 87.9 178.18 79.5 180.34 79.5 180.34 85.97" class="d"/>
     <path id="svg_9" fill="#94c01f" d="m189.9,81.42l-3.11,0l0,1.22l2.86,0l0,1.91l-2.86,0l0,1.47l3.22,0l0,1.91l-5.35,0l0,-8.4l5.24,0l0,1.89zm-3.59,-2.47l0,-0.19l0.92,-2l1.82,0.61l0,0.18l-1.24,1.4l-1.5,0z" class="d"/>
     <path id="svg_10" fill="#94c01f" d="m198.97,87.64l0,0.31l-2.44,0l-1.44,-2.47l-1.11,0l0,2.47l-2.15,0l0,-8.4l3.7,0a3,3 0 0 1 1.77,5.42l1.67,2.67zm-3.44,-6.22l-1.53,0l0,2.08l1.53,0c1.16,0 1.22,-2.07 0,-2.08" class="d"/>
     <polygon id="svg_11" fill="#94c01f" points="205.55 81.42 202.44 81.42 202.44 82.61 205.3 82.61 205.3 84.52 202.44 84.52 202.44 85.99 205.66 85.99 205.66 87.9 200.31 87.9 200.31 79.5 205.55 79.5 205.55 81.42" class="d"/>
     <polygon id="svg_12" fill="#94c01f" points="209.74 83.77 209.74 87.9 207.52 87.9 207.52 79.47 208.3 79.47 212.55 83.62 212.55 79.5 214.74 79.5 214.74 87.91 213.97 87.91 209.74 83.77" class="d"/>
     <path id="svg_13" fill="#44205f" d="m223.35,87.9l-3.17,0l0,-8.4l3.17,0c5.46,0 5.46,8.37 0,8.4m-1,-2l1,0c2.67,0 2.67,-4.48 0,-4.48l-1,0l0,4.48z" class="c"/>
     <path id="svg_14" fill="#44205f" d="m228.53,83.71c0,-5.8 8.61,-5.8 8.61,0s-8.61,5.82 -8.61,0m6.42,0a2.11,2.11 0 1 0 -4.21,0a2.11,2.11 0 1 0 4.21,0" class="c"/>
     <polygon id="svg_15" fill="#44205f" points="244 81.42 240.9 81.42 240.9 82.61 243.75 82.61 243.75 84.52 240.9 84.52 240.9 85.99 244.11 85.99 244.11 87.9 238.76 87.9 238.76 79.5 244 79.5 244 81.42" class="c"/>
     <polygon id="svg_16" fill="#44205f" points="248.2 83.77 248.2 87.9 245.98 87.9 245.98 79.47 246.76 79.47 251 83.62 251 79.5 253.2 79.5 253.2 87.91 252.43 87.91 248.2 83.77" class="c"/>
    </g>
    <rect id="svg_17" fill="#94c01f" height="10.29" width="33.45" y="17.04" class="d"/>
    <rect id="svg_18" fill="#44205f" height="44.91" width="11.34" y="17.17" x="11.05" class="c"/>
    <rect id="svg_19" fill="#94c01f" height="1.21" width="4.2" y="20.65" x="11.06" class="d"/>
    <rect id="svg_20" fill="#94c01f" height="1.21" width="4.2" y="25.23" x="11.06" class="d"/>
    <rect id="svg_21" fill="#94c01f" height="1.21" width="4.2" y="29.8" x="11.06" class="d"/>
    <rect id="svg_22" fill="#94c01f" height="1.21" width="4.2" y="34.38" x="11.06" class="d"/>
    <rect id="svg_23" fill="#94c01f" height="1.21" width="4.2" y="38.96" x="11.06" class="d"/>
    <rect id="svg_24" fill="#94c01f" height="1.21" width="4.2" y="43.53" x="11.06" class="d"/>
    <rect id="svg_25" fill="#94c01f" height="1.21" width="4.2" y="48.11" x="11.06" class="d"/>
    <rect id="svg_26" fill="#94c01f" height="1.21" width="4.2" y="52.69" x="11.06" class="d"/>
    <rect id="svg_27" fill="#94c01f" height="1.21" width="4.2" y="57.27" x="11.06" class="d"/>
    <path id="svg_28" fill="#44205f" d="m127.68,62.08l5.39,0l0,1.71a0.86,0.86 0 0 1 -0.86,0.87l-3.68,0a0.87,0.87 0 0 1 -0.87,-0.88l0.02,-1.7z" class="c"/>
    <path id="svg_29" fill="#44205f" d="m158.75,17.04l-5.4,0l0,-1.7a0.87,0.87 0 0 1 0.87,-0.87l3.65,0a0.87,0.87 0 0 1 0.88,0.87l0,1.7z" class="c"/>
    <polygon id="svg_30" fill="#94c01f" points="161.94 62.09 150.16 62.09 150.16 44 136.27 44 136.27 62.09 124.49 62.09 124.49 17.04 136.27 17.04 136.27 33.39 150.16 33.39 150.16 17.04 161.94 17.04 161.94 62.09" class="d"/>
    <rect id="svg_31" fill="#44205f" height="34.62" width="11.77" y="27.47" x="150.17" class="c"/>
    <path id="svg_32" fill="#44205f" d="m158.39,21.78l-1.94,0l0,-1.86a0.4,0.4 0 0 0 -0.4,-0.4a0.39,0.39 0 0 0 -0.39,0.4l0,1.86l-1.95,0a0.39,0.39 0 0 0 -0.39,0.39a0.4,0.4 0 0 0 0.39,0.4l1.95,0l0,2a0.39,0.39 0 0 0 0.39,0.4a0.4,0.4 0 0 0 0.4,-0.4l0,-2l1.94,0a0.4,0.4 0 0 0 0.39,-0.4a0.39,0.39 0 0 0 -0.39,-0.39" class="c"/>
    <rect id="svg_33" fill="#44205f" height="34.62" width="11.77" y="17.04" x="124.49" class="c"/>
    <path id="svg_34" fill="#44205f" d="m132.71,56.56l-1.94,0l0,-2a0.4,0.4 0 1 0 -0.79,0l0,2l-1.94,0a0.4,0.4 0 0 0 0,0.79l1.94,0l0,1.86a0.4,0.4 0 0 0 0.79,0l0,-1.86l1.94,0a0.4,0.4 0 1 0 0,-0.79" class="c"/>
    <path id="svg_35" fill="#94c01f" d="m132.71,23.44l-4.67,0a0.39,0.39 0 0 1 -0.39,-0.4a0.38,0.38 0 0 1 0.39,-0.39l4.67,0a0.39,0.39 0 0 1 0.4,0.39a0.4,0.4 0 0 1 -0.4,0.4" class="d"/>
    <path id="svg_36" fill="#94c01f" d="m158.53,57.27l-4.67,0a0.39,0.39 0 0 1 -0.39,-0.4a0.38,0.38 0 0 1 0.39,-0.39l4.67,0a0.39,0.39 0 0 1 0.4,0.39a0.4,0.4 0 0 1 -0.4,0.4" class="d"/>
    <polygon id="svg_37" fill="#94c01f" points="66.77 27.34 50.1 27.34 50.1 33.71 65.41 33.71 65.41 43.94 50.1 43.94 50.1 51.85 67.34 51.85 67.34 62.09 38.65 62.09 38.65 17.04 66.77 17.04 66.77 27.34" class="d"/>
    <path id="svg_38" fill="#44205f" d="m49.95,21.64a1.2,1.2 0 0 0 -1.16,1l-4.14,0l-3.12,-3.89l-2.92,0l0,0.46l2.69,0l3.09,3.89l4.37,0a1.19,1.19 0 0 0 1.16,1a1.21,1.21 0 0 0 0,-2.42" class="c"/>
    <path id="svg_39" fill="#44205f" d="m63.35,41.85l-2.28,-3.88l-4,0a1.19,1.19 0 0 0 -1.16,-0.95a1.21,1.21 0 1 0 0,2.41a1.19,1.19 0 0 0 1.16,-1l3.71,0l2.29,3.89l2.35,0l0,-0.52l-2.07,0.05z" class="c"/>
    <path id="svg_40" fill="#44205f" d="m51.16,56.51a1.21,1.21 0 1 0 -1.47,1.16l0,4.41l0.52,0l0,-4.44a1.21,1.21 0 0 0 0.95,-1.16" class="c"/>
    <path id="svg_41" fill="#44205f" d="m67.34,56.23l-4,0a1.21,1.21 0 1 0 0,0.52l4,0l0,-0.52z" class="c"/>
    <path id="svg_42" fill="#44205f" d="m60.53,20.5l0,-3.46l-0.52,0l0,3.46a1.19,1.19 0 0 0 -0.95,1.15a1.21,1.21 0 1 0 1.47,-1.15" class="c"/>
    <path id="svg_43" fill="#44205f" d="m50.38,38.93a1.19,1.19 0 0 0 -1.15,0.95l-4.95,0l0,13l-2.37,0l0,-17.1l2.13,0a1.19,1.19 0 0 0 1.16,0.95a1.21,1.21 0 0 0 0,-2.42a1.19,1.19 0 0 0 -1.16,0.95l-2.13,0l0,-4.62a1.19,1.19 0 0 0 0.95,-1.16a1.21,1.21 0 1 0 -2.42,0a1.19,1.19 0 0 0 0.95,1.16l0,24.55l-2.74,2.45l0,0.69l3.26,-2.85l0,-2l2.89,0l0,-13l4.43,0a1.19,1.19 0 0 0 1.15,0.95a1.21,1.21 0 1 0 0,-2.41" class="c"/>
    <path id="svg_44" fill="#94c01f" d="m95.86,16.14c-11.44,0 -23,7.7 -23.1,23l11.91,0c0,-7.43 4.45,-12.48 11.19,-12.48c4.83,0 8.24,2.06 9.85,6.63l11.32,0c-1.74,-12 -11.84,-17.12 -21.17,-17.12" class="d"/>
    <path id="svg_45" fill="#44205f" d="m95.86,62.08c-11.44,0 -23,-7.7 -23.1,-23l11.91,0c0,7.43 4.45,12.49 11.19,12.49c4.83,0 8.24,-2.06 9.85,-6.63l11.32,0c-1.74,12 -11.84,17.11 -21.17,17.11" class="c"/>
    <path id="svg_46" fill="#44205f" d="m121.89,61.55l-4.6,0l0,-22.12l4,0l0,-0.51l-4,0l0,-21.37l4.09,0l0,-0.51l-4.09,0l0,-4.34l-0.52,0l0,4.34l-21.61,0l0,-4.34l-0.52,0l0,4.34l-21.62,0l0,-4.34l-0.49,0l0,4.34l-4.08,0l0,0.51l4.08,0l0,21.37l-4.16,0l0,0.51l4.16,0l0,22.12l-3.6,0l0,0.52l3.6,0l0,3.57l0.52,0l0,-3.58l21.62,0l0,3.58l0.52,0l0,-3.58l21.61,0l0,3.58l0.52,0l0,-3.58l4.6,0l-0.03,-0.51zm-5.12,-44l0,21.37l-19.95,0a2,2 0 0 0 -1.66,-1.67l0,-19.7l21.61,0zm-22.13,21.37l-1.11,0a1.45,1.45 0 0 1 1.15,-1.15l-0.04,1.15zm0,0.51l0,1.15a1.45,1.45 0 0 1 -1.15,-1.15l1.15,0zm0.52,0l1.14,0a1.44,1.44 0 0 1 -1.14,1.15l0,-1.15zm0,-0.51l0,-1.15a1.44,1.44 0 0 1 1.14,1.15l-1.14,0zm-22.14,-21.37l21.62,0l0,19.7a2,2 0 0 0 -1.67,1.67l-19.95,0l0,-21.37zm0,44l0,-22.12l19.95,0a2,2 0 0 0 1.67,1.67l0,20.45l-21.62,0zm22.14,0l0,-20.45a2,2 0 0 0 1.66,-1.67l19.95,0l0,22.12l-21.61,0z" class="c"/>
    <path id="svg_47" fill="#44205f" d="m373.53,48.64a3.39,3.39 0 0 1 -3.4,3.19l-9.21,0l0,-1.44l-2.49,0a0.78,0.78 0 1 1 0,-1.55l2.53,0l0,-1.67l-2.53,0a0.78,0.78 0 0 1 -0.78,-0.78a0.77,0.77 0 0 1 0.78,-0.77l2.53,0l0,-1.44l9.14,0a3.46,3.46 0 0 1 3.46,3.19l11.39,0a9.66,9.66 0 0 0 -5.42,-8.73a10.72,10.72 0 0 0 3.5,-7l-11.42,0a3.33,3.33 0 0 1 -3.37,3.07l-7.28,0l0,-1.31l-2.53,0a0.78,0.78 0 0 1 0,-1.56l2.53,0l0,-1.67l-2.53,0a0.77,0.77 0 0 1 -0.78,-0.77a0.78,0.78 0 0 1 0.78,-0.78l2.53,0l0,-1.28l7.21,0a3.37,3.37 0 0 1 3.43,3.07l11.49,0a13.82,13.82 0 0 0 -14,-13.36l-19.26,0l0,45l21.11,0c8.89,0 13.63,-5.94 14,-13.42l-11.41,0.01z" class="c"/>
    <polygon id="svg_48" fill="#94c01f" points="181.66 39.93 181.66 62.1 169.74 62.1 169.74 16.8 173.93 16.8 196.74 39.09 196.74 16.99 208.53 16.99 208.53 62.16 204.41 62.16 181.66 39.93" class="d"/>
    <path id="svg_49" fill="#44205f" d="m178.61,60.45l-6,0a1.3,1.3 0 0 1 -1.3,-1.3l0,-6a1.3,1.3 0 0 1 1.3,-1.3l6,0a1.3,1.3 0 0 1 1.29,1.3l0,6a1.3,1.3 0 0 1 -1.29,1.3" class="c"/>
    <path id="svg_50" fill="#94c01f" d="m178.85,56.16a3.23,3.23 0 1 1 -3.23,-3.23a3.23,3.23 0 0 1 3.23,3.23" class="d"/>
    <path id="svg_51" fill="#44205f" d="m177.26,56.16a0.5,0.5 0 1 1 -1,0a0.5,0.5 0 0 1 1,0" class="c"/>
    <path id="svg_52" fill="#44205f" d="m174.98,56.16a0.51,0.51 0 1 1 -1,0a0.51,0.51 0 0 1 1,0" class="c"/>
    <polygon id="svg_53" fill="#44205f" points="203.78 53.38 176.12 27.97 176.12 52.26 175.12 52.26 175.12 25.69 202.76 51.09 202.55 22.3 203.55 22.29 203.78 53.38" class="c"/>
    <path id="svg_54" fill="#94c01f" d="m332.39,56.49l-17.53,0l-2.61,5.59l-11.12,0l0,-1.65l20,-43.4l4.89,0l20.08,43.4l0,1.65l-11.1,0l-2.61,-5.59zm-8.86,-21.41l-5,11.69l10.17,0l-5.17,-11.69z" class="d"/>
    <path id="svg_55" fill="#44205f" d="m341.22,57.76c-1.89,-1.56 -1.14,-4.28 -1.22,-6.44a21.07,21.07 0 0 0 -1.62,-7.92c-1.9,-4.31 -5.41,-8.26 -8.66,-11.62a2.64,2.64 0 0 0 -1.8,-0.87l-0.89,-2.75a3.58,3.58 0 0 0 0.34,-1.35a3.75,3.75 0 0 0 -0.18,-1.38c1.28,-2.2 1.28,-4.6 1.29,-6.94a41.59,41.59 0 0 0 -1.14,-7l-1.29,0s-0.1,2.37 -0.17,3.39a32.33,32.33 0 0 1 -1.45,8.07a3.08,3.08 0 0 0 -0.53,-0.08l-0.22,0a3.49,3.49 0 0 0 -0.86,0.11a32.13,32.13 0 0 1 -1.46,-8.09c-0.06,-1 -0.17,-3.39 -0.17,-3.39l-1.29,0a41.59,41.59 0 0 0 -1.14,7c0,2.39 0,4.85 1.38,7.1a2.91,2.91 0 0 0 -0.14,0.79a3.49,3.49 0 0 0 0.25,1.55l-1,3a2.71,2.71 0 0 0 -1.75,0.87c-3.25,3.36 -6.76,7.33 -8.66,11.62a21.07,21.07 0 0 0 -1.62,7.92c-0.07,2.16 0.67,4.88 -1.22,6.45c-2.91,2.4 1.26,6.53 4.14,4.14c3.69,-3.05 2.69,-7.05 3,-11.23c0.41,-6 4.53,-10.62 8.52,-14.75a2.73,2.73 0 0 0 0.44,-3.39l0.74,-2.34a4.21,4.21 0 0 0 0.62,0.09l0.22,0a3.71,3.71 0 0 0 0.67,-0.07l0.75,2.37a2.72,2.72 0 0 0 0.47,3.33c4,4.12 8.12,8.82 8.52,14.75c0.29,4.18 -0.7,8.2 3,11.24c2.88,2.39 7.06,-1.74 4.14,-4.15m-17.64,-29.37a1.79,1.79 0 0 1 -1.24,-0.6a1.77,1.77 0 0 1 -0.45,-1.3a1.8,1.8 0 0 1 1.79,-1.69l0.11,0a1.8,1.8 0 0 1 -0.1,3.59l-0.11,0" class="c"/>
    <rect id="svg_56" fill="#94c01f" height="45.04" width="11.58" y="17.04" x="269.49" class="d"/>
    <polygon id="svg_57" fill="#44205f" points="275.29 6.87 269.49 17.04 281.08 17.04 275.29 6.87" class="c"/>
    <polygon id="svg_58" fill="#94c01f" points="275.29 6.87 273.2 10.54 277.37 10.54 275.29 6.87" class="d"/>
    <rect id="svg_59" fill="#44205f" height="10.36" width="16.34" y="51.73" x="281.08" class="c"/>
    <path id="svg_60" fill="#94c01f" d="m247.33,38.46a1.85,1.85 0 0 0 -1.26,-0.65a3,3 0 0 0 -2.09,0.68a5.19,5.19 0 0 0 -1.27,1.41a5.53,5.53 0 0 1 -1.11,-0.94a7.39,7.39 0 0 0 0.84,-1.63a2.13,2.13 0 0 0 0.08,-1.57a1.5,1.5 0 0 0 -0.93,-0.86a1.68,1.68 0 0 0 -1.37,0.11a2.18,2.18 0 0 0 -1,2a3.67,3.67 0 0 0 0.61,1.84l0.08,0.12a6.12,6.12 0 0 1 -1.78,1.35a2.91,2.91 0 0 0 -1.34,-1.56a2,2 0 0 0 -1.88,0a1.67,1.67 0 0 0 -0.92,1.3a2,2 0 0 0 1.25,1.92a3.21,3.21 0 0 0 1.95,0.07l0.06,0l1.49,9.49l0.9,-0.11l-1.11,-9.85a7.22,7.22 0 0 0 2.23,-1.57a7.1,7.1 0 0 0 1.46,1.16a10,10 0 0 0 -0.13,1.12l-0.27,9.39l0.91,0l0.72,-9.39a5,5 0 0 1 0.05,-0.58l0.46,0.13a3.37,3.37 0 0 0 2.82,-0.35a2.33,2.33 0 0 0 1,-1.58a1.89,1.89 0 0 0 -0.39,-1.49m-11.59,2.28a0.62,0.62 0 0 1 -0.4,-0.56a0.36,0.36 0 0 1 0.2,-0.26a0.72,0.72 0 0 1 0.32,-0.08a0.64,0.64 0 0 1 0.28,0.06a1.71,1.71 0.69,0.84a1.81,1.81 0 0 1 -1.09,0m5.41,-3.86a5.28,5.28 0 0 1 -0.38,0.84a2.12,2.12 0 0 1 -0.21,-0.78a0.91,0.91 0 0 1 0.34,-0.77a0.24,0.24 0 0 1 0.12,0a0.25,0.25 0 0 1 0.12,0a0.19,0.19 0 0 1 0.11,0.09a1,1 0 0 1 -0.1,0.63m5.22,2.89a1,1 0 0 1 -0.4,0.67a2.09,2.09 0 0 1 -1.69,0.14l-0.34,-0.09a4.07,4.07 0 0 1 0.91,-1a1.64,1.64 0 0 1 1.08,-0.39a0.46,0.46 0 0 1 0.34,0.16a0.66,0.66 0 0 1 0.1,0.47" class="d"/>
    <path id="svg_61" fill="#94c01f" d="m245.53,64.47l-9.3,0a0.69,0.69 0 0 1 0,-1.37l9.3,0a0.69,0.69 0 0 1 0,1.37" class="d"/>
    <path id="svg_62" fill="#94c01f" d="m245.53,66.44l-9.3,0a0.68,0.68 0 0 1 0,-1.36l9.3,0a0.68,0.68 0 0 1 0,1.36" class="d"/>
    <path id="svg_63" fill="#94c01f" d="m245.53,68.5l-9.3,0a0.68,0.68 0 0 1 0,-1.36l9.3,0a0.68,0.68 0 1 1 0,1.36" class="d"/>
    <path id="svg_64" fill="#44205f" d="m217.59,39.07c0,-30.64 46.52,-30.64 46.52,0s-46.52,30.71 -46.52,0m34.66,0c0,-15.95 -22.74,-15.95 -22.74,0s22.74,16.09 22.74,0" class="c"/>
    <path id="svg_65" fill="#94c01f" d="m240.89,72.64a3.33,3.33 0 0 0 3.37,-3.29l-6.73,0a3.33,3.33 0 0 0 3.37,3.29" class="d"/>
    <path id="svg_66" fill="#94c01f" d="m241.28,11.26a1,1 0 0 1 -1,-1l0,-9.22a1,1 0 0 1 2.08,0l0,9.22a1,1 0 0 1 -1,1" class="d"/>
    <path id="svg_67" fill="#94c01f" d="m253.05,12.99a1,1 0 0 1 -0.64,-0.21a1,1 0 0 1 -0.19,-1.43l5.76,-7.31a1.05,1.05 0 0 1 1.46,-0.18a1,1 0 0 1 0.19,1.43l-5.75,7.35a1.06,1.06 0 0 1 -0.83,0.39" class="d"/>
    <path id="svg_68" fill="#94c01f" d="m229.53,12.99a1.06,1.06 0 0 1 -0.83,-0.39l-5.75,-7.31a1,1 0 0 1 0.19,-1.43a1.05,1.05 0 0 1 1.46,0.18l5.76,7.31a1,1 0 0 1 -0.19,1.43a1,1 0 0 1 -0.64,0.21" class="d"/>

    <!-- SPINNING MILL: wieken draaien, middelpunt blijft stil -->
    <g id="spinning-mill">
     <title>spinning-mill</title>

     <!-- Wieken (draaien) -->
     <g id="spinning-mill-wings">
      <animateTransform
       attributeName="transform"
       type="rotate"
       from="0 203 22"
       to="360 203 22"
       dur="8s"
       repeatCount="indefinite" />

      <path fill="#44205f" d="m215.66509,43.47893a2.51,2.51 0 0 1 -0.59,-0.53q-5.44,-8.76 -10.87,-17.54a1.58,1.58 0 0 1 -0.15,-0.28l1.87,-1.42c1,0.59 2.14,1.22 3.25,1.89a1.23,1.23 0 0 1 0.38,0.62c1.63,4.17 3.24,8.34 4.86,12.51c0.47,1.21 1,2.42 1.41,3.64a5.57,5.57 0 0 1 0.15,0.91l-0.31,0.2z" class="a"/>
      <path fill="#44205f" d="m200.14509,21.40893c0.11,0.74 0.2,1.43 0.32,2.24c-1,0.51 -2.06,1.08 -3.14,1.62a0.9,0.9 0 0 1 -0.49,0l-17.77,-2.17c-0.32,0 -0.72,-0.06 -0.62,-0.5a0.81,0.81 0 0 1 0.63,-0.41q10.41,-0.4 20.84,-0.75a1.29,1.29 0 0 1 0.23,0" class="a"/>
      <path fill="#44205f" d="m205.20509,19.68893l-2,-0.73c0.08,-1.21 0.15,-2.5 0.26,-3.79a1.33,1.33 0 0 1 0.3,-0.54l10.5,-14c0.08,-0.1 0.14,-0.24 0.24,-0.28a1,1 0 0 1 0.61,-0.1c0.09,0 0.12,0.35 0.12,0.54s-0.1,0.23 -0.16,0.34q-4.82,9.11 -9.65,18.21c-0.08,0.14 -0.18,0.27 -0.23,0.36" class="a"/>
     </g>

     <!-- Middelpunt (blijft stil) -->
     <path fill="#44205f" d="m204.20509,23.76893a2,2 0 0 1 -2.64,-0.67a1.94,1.94 0 0 1 3.29,-2a2,2 0 0 1 -0.64,2.7" class="a"/>
    </g>
    <!-- /SPINNING MILL -->

   </g>
  </g>
 </g>

 <!-- Shiny sweep overlay (wow-effect) -->
 <g id="shineOverlay" mask="url(#logoMask)" opacity="0.55" style="mix-blend-mode:screen">
  <!-- grote baan, iets gedraaid, beweegt van links naar rechts -->
  <rect x="-420" y="-120" width="220" height="420" fill="url(#shineGradient)" transform="rotate(-18 192.475 45.54)">
   <animate attributeName="x" from="-420" to="620" dur="10.2s" repeatCount="indefinite"/>
  </rect>
 </g>
</svg>
